# xmcd CD database file
#
# Track frame offsets:
#	150
#	16323
#	30246
#	45894
#	63942
#	81240
#	99663
#	117561
#	136059
#	153057
#
# Disc length: 2348 seconds
#
# Revision: 0
# Processed by: cddbd v1.5.2PL0 Copyright (c) Steve Scherf et al.
# Submitted via: CDex 1.70beta2
#
DISCID=6b092a0a
DTITLE=Amy MacDonald - This Is The Life
DYEAR=1900
DGENRE=Country
TTITLE0=Amy MacDonald - Mr. Rock and Roll
TTITLE1=Amy MacDonald - This Is the Life
TTITLE2=Amy MacDonald - Poison Prince
TTITLE3=Amy MacDonald - Youth of Today
TTITLE4=Amy MacDonald - Run
TTITLE5=Amy MacDonald - Let's Start a Band
TTITLE6=Amy MacDonald - Barrowland Ballroom
TTITLE7=Amy MacDonald - L.A.
TTITLE8=Amy MacDonald - A Wish for Something More
TTITLE9=Amy MacDonald - Footballer's Wife
EXTD=
EXTT0=
EXTT1=
EXTT2=
EXTT3=
EXTT4=
EXTT5=
EXTT6=
EXTT7=
EXTT8=
EXTT9=
PLAYORDER=
